<svg width="60" height="60" viewBox="0 0 60 60" fill="none" xmlns="http://www.w3.org/2000/svg">
<g clip-path="url(#clip0_1838_11507)">
<path d="M9.59174 14.3623V39.3158H50.4078V14.3623H9.59174ZM37.9055 32.5407C32.8642 34.7385 27.1354 34.7385 22.0941 32.5407V24.7613L18.7003 23.428L29.9998 18.9895L41.2994 23.4282L37.9055 24.7614V32.5407Z" fill="#D4F0E3"/>
<path d="M58.8281 43.3313H56.7362V12.2304C56.7362 9.91668 54.8538 8.03418 52.5398 8.03418H7.46016C5.14629 8.03418 3.26379 9.91656 3.26379 12.2304V43.3313H1.17188C0.524648 43.3313 0 43.856 0 44.5032V46.9691C0 49.725 2.24203 51.9669 4.99793 51.9669H55.0021C57.758 51.9669 60 49.7249 60 46.9691V44.5032C60 43.8559 59.4754 43.3313 58.8281 43.3313ZM5.60754 12.2304C5.60754 11.2089 6.43863 10.3779 7.46016 10.3779H52.5398C53.5614 10.3779 54.3925 11.2089 54.3925 12.2304V38.1439H5.60754V12.2304ZM5.60754 40.4876H54.3925V43.3313H5.60754V40.4876ZM57.6562 46.9691C57.6562 48.4326 56.4656 49.6232 55.0021 49.6232H4.99793C3.53437 49.6232 2.34375 48.4326 2.34375 46.9691V45.675H28.8281V46.0429C28.8281 46.69 29.3528 47.2148 30 47.2148C30.6472 47.2148 31.1719 46.69 31.1719 46.0429V45.675H57.6562V46.9691Z" fill="#29B475"/>
<path d="M41.7277 22.3363L30.4281 17.8976C30.1526 17.7893 29.8467 17.7893 29.5712 17.8976L18.2716 22.3363C17.8231 22.5125 17.5281 22.9452 17.5281 23.4271C17.5281 23.909 17.8231 24.3417 18.2716 24.5179L20.9221 25.5591V32.5397C20.9221 33.0059 21.1983 33.4276 21.6256 33.614C24.2866 34.774 27.1431 35.3542 29.9996 35.3542C32.856 35.3542 35.7127 34.7741 38.3736 33.614C38.8008 33.4276 39.0771 33.0059 39.0771 32.5397V25.5591L41.7276 24.5179C42.1761 24.3417 42.471 23.909 42.471 23.4271C42.471 22.9452 42.1762 22.5125 41.7277 22.3363ZM29.9996 20.2475L38.0941 23.4271L29.9996 26.6067L21.9051 23.4271L29.9996 20.2475ZM36.7334 31.7549C32.4139 33.4296 27.5854 33.4296 23.2658 31.7549V26.4796L29.5712 28.9565C29.7088 29.0106 29.8543 29.0376 29.9996 29.0376C30.1449 29.0376 30.2903 29.0106 30.428 28.9565L36.7334 26.4796V31.7549Z" fill="#29B475"/>
</g>
<defs>
<clipPath id="clip0_1838_11507">
<rect width="60" height="60" fill="white"/>
</clipPath>
</defs>
</svg>
