<svg width="60" height="60" viewBox="0 0 60 60" fill="none" xmlns="http://www.w3.org/2000/svg">
<g clip-path="url(#clip0_1838_11567)">
<path d="M54.8602 45.3483C56.3429 43.8717 57.2637 41.8193 57.2637 39.5536C57.2637 35.0675 53.6548 31.418 49.2189 31.418C44.783 31.418 41.1741 35.0677 41.1741 39.5536C41.1741 41.8193 42.0947 43.8717 43.5776 45.3483C41.9757 45.3991 40.5505 46.1627 39.6096 47.3319C38.6687 46.1627 37.2435 45.3991 35.6416 45.3483C37.1244 43.8717 38.0452 41.8193 38.0452 39.5536C38.0452 35.0675 34.4362 31.418 30.0004 31.418C25.5645 31.418 21.9555 35.0677 21.9555 39.5536C21.9555 41.8193 22.8762 43.8717 24.3591 45.3483C22.7572 45.3991 21.332 46.1627 20.3911 47.3319C19.4502 46.1627 18.025 45.3991 16.4231 45.3483C17.9059 43.8717 18.8266 41.8193 18.8266 39.5536C18.8266 35.0675 15.2177 31.418 10.7818 31.418C6.34594 31.418 2.73703 35.0677 2.73703 39.5536C2.73703 41.8193 3.65766 43.8717 5.14055 45.3483C2.29031 45.4388 0 47.7848 0 50.6559V56.0748C0 56.722 0.524648 57.2467 1.17188 57.2467H58.8281C59.4752 57.2467 60 56.722 60 56.0748V50.6559C60 47.7848 57.7097 45.4388 54.8602 45.3483ZM43.5177 39.5536C43.5177 36.36 46.0752 33.7617 49.2188 33.7617C52.3623 33.7617 54.9198 36.36 54.9198 39.5536C54.9198 42.7472 52.3623 45.3455 49.2188 45.3455C46.0752 45.3455 43.5177 42.7472 43.5177 39.5536ZM24.2989 39.5536C24.2989 36.36 26.8564 33.7617 30 33.7617C33.1436 33.7617 35.7011 36.36 35.7011 39.5536C35.7011 42.7472 33.1436 45.3455 30 45.3455C26.8564 45.3455 24.2989 42.7472 24.2989 39.5536ZM5.0802 39.5536C5.0802 36.36 7.6377 33.7617 10.7812 33.7617C13.9248 33.7617 16.4823 36.36 16.4823 39.5536C16.4823 42.7472 13.9248 45.3455 10.7812 45.3455C7.6377 45.3455 5.0802 42.7472 5.0802 39.5536ZM2.34375 50.6559C2.34375 49.0201 3.67465 47.6892 5.31047 47.6892H16.2519C17.8877 47.6892 19.2186 49.0201 19.2186 50.6559V54.9029H2.34375V50.6559ZM21.5625 50.6559C21.5625 49.0201 22.8934 47.6892 24.5292 47.6892H35.4707C37.1066 47.6892 38.4374 49.0201 38.4374 50.6559V54.9029H21.5625V50.6559ZM57.6562 54.9029H40.7812V50.6559C40.7812 49.0201 42.112 47.6892 43.748 47.6892H54.6894C56.3254 47.6892 57.6561 49.0201 57.6561 50.6559V54.9029H57.6562Z" fill="#29B475"/>
<path d="M43.5677 2.75391H16.4323C15.5791 2.75391 14.8873 3.44555 14.8873 4.29891V23.1762C14.8873 24.0294 15.5791 24.7212 16.4323 24.7212H27.4505L29.9999 27.4289L32.5494 24.7212H43.5676C44.4208 24.7212 45.1126 24.0295 45.1126 23.1762V4.29891C45.1126 3.44555 44.4209 2.75391 43.5677 2.75391ZM33.2875 15.1952L29.0628 17.7484C27.8505 18.4811 26.3029 17.6081 26.3029 16.1916V11.0852C26.3029 9.66867 27.8505 8.79574 29.0628 9.5284L33.2875 12.0816C34.4585 12.7893 34.4585 14.4877 33.2875 15.1952Z" fill="#D4F0E3"/>
</g>
<defs>
<clipPath id="clip0_1838_11567">
<rect width="60" height="60" fill="white"/>
</clipPath>
</defs>
</svg>
