<svg width="60" height="60" viewBox="0 0 60 60" fill="none" xmlns="http://www.w3.org/2000/svg">
<g clip-path="url(#clip0_1838_11519)">
<path d="M50.3942 47.5457C50.7479 46.8381 50.947 46.0404 50.947 45.197V43.1473C50.947 40.2406 48.5823 37.876 45.6757 37.876C42.7691 37.876 40.4044 40.2407 40.4044 43.1473V45.197C40.4044 46.0404 40.6035 46.8381 40.9571 47.5457C38.7082 49.0983 37.3297 51.6897 37.3297 54.4209V56.3039C37.3297 56.9511 37.8544 57.4758 38.5016 57.4758H52.8498C53.497 57.4758 54.0217 56.9511 54.0217 56.3039V54.4209C54.0215 51.6897 52.6431 49.0983 50.3942 47.5457ZM42.7479 43.1473C42.8955 39.2678 48.4569 39.2706 48.6032 43.1473V45.197C48.4555 49.0768 42.894 49.0738 42.7479 45.197V43.1473ZM51.6778 55.1322H39.6733V54.421C39.6733 52.3922 40.7344 50.4689 42.4522 49.3655C44.2297 50.8213 47.1217 50.8211 48.899 49.3655C50.6169 50.4691 51.6779 52.3922 51.6779 54.421V55.1322H51.6778Z" fill="#29B475"/>
<path d="M56.4369 2.52246H21.7616C19.7968 2.52246 18.1984 4.12102 18.1984 6.08566V9.67265C18.256 11.2259 20.485 11.2247 20.5421 9.67265V6.08566C20.5421 5.41324 21.0891 4.86621 21.7616 4.86621H56.4368C57.1092 4.86621 57.6562 5.41324 57.6562 6.08566V25.2166C57.6562 25.8891 57.1092 26.4361 56.4368 26.4361H48.0669C47.7561 26.4361 47.458 26.5596 47.2382 26.7793L45.6756 28.3421L44.1129 26.7793C43.8931 26.5596 43.595 26.4361 43.2842 26.4361H38.2624C36.7092 26.4937 36.7104 28.7228 38.2624 28.7798H42.7987L44.8469 30.8282C45.2833 31.282 46.0679 31.282 46.5043 30.8282L48.5525 28.7798H56.437C58.4018 28.7798 60.0002 27.1814 60.0002 25.2166V6.08566C60.0001 4.12102 58.4016 2.52246 56.4369 2.52246Z" fill="#29B475"/>
<path d="M37.9038 12.04H52.8497C54.4029 11.9824 54.4017 9.75336 52.8497 9.69629H37.9038C36.3506 9.75395 36.3518 11.983 37.9038 12.04Z" fill="#29B475"/>
<path d="M37.9038 16.8232H52.8497C54.4029 16.7656 54.4017 14.5366 52.8497 14.4795H37.9038C36.3506 14.5371 36.3518 16.7662 37.9038 16.8232Z" fill="#29B475"/>
<path d="M52.8496 21.6064C54.4028 21.5488 54.4016 19.3198 52.8496 19.2627H37.9038C36.3506 19.3204 36.3518 21.5494 37.9038 21.6064H52.8496Z" fill="#29B475"/>
<path d="M17.8713 47.5458C18.225 46.8382 18.4241 46.0404 18.4241 45.1971V43.1473C18.4241 40.2406 16.0593 37.876 13.1527 37.876C10.2461 37.876 7.88141 40.2407 7.88141 43.1473V45.197C7.88141 46.0404 8.08051 46.8381 8.43418 47.5457C6.18524 49.0983 4.80676 51.6897 4.80676 54.4209V56.3039C4.80676 56.9511 5.33141 57.4758 5.97864 57.4758H20.3268C20.9741 57.4758 21.4987 56.9511 21.4987 56.3039V54.4209C21.4986 51.6897 20.1201 49.0983 17.8713 47.5458ZM10.2249 43.1473C10.3726 39.2678 15.9339 39.2706 16.0802 43.1473V45.197C15.9325 49.0768 10.3711 49.0738 10.2249 45.197V43.1473ZM19.1548 55.1322H7.15028V54.421C7.15028 52.3922 8.21129 50.4689 9.92914 49.3655C11.7066 50.8213 14.5986 50.8211 16.376 49.3655C18.0938 50.4691 19.1548 52.3921 19.1548 54.421V55.1322Z" fill="#29B475"/>
<path fill-rule="evenodd" clip-rule="evenodd" d="M2.39133 8.47656H37.0665C38.3818 8.47656 39.4579 9.55363 39.4579 10.8679V29.999C39.4579 31.313 38.3804 32.3903 37.0665 32.3903H15.544L13.1525 34.7818L10.7611 32.3903H2.39133C1.07719 32.3903 0 31.3143 0 29.999V10.8679C0 9.55258 1.07602 8.47656 2.39133 8.47656Z" fill="#D4F0E3"/>
<path d="M10.1635 13.8663C8.04956 13.8663 6.32971 15.5861 6.32971 17.7001C6.32971 18.3472 6.85436 18.872 7.50159 18.872C8.14881 18.872 8.67346 18.3472 8.67346 17.7001C8.67346 16.8785 9.3419 16.2101 10.1635 16.2101C11.4547 16.194 12.1455 17.8074 11.2416 18.7285C9.38467 20.6743 8.99163 21.1514 8.99163 23.0238C8.99163 23.6709 9.51627 24.1957 10.1635 24.1957C10.8107 24.1957 11.3354 23.6709 11.3354 23.0238C11.3354 22.025 11.3354 22.025 12.937 20.3468C15.2594 17.9533 13.5001 13.8436 10.1635 13.8663Z" fill="#29B475"/>
<path d="M10.1636 25.8232H10.1629C9.51563 25.8232 8.99133 26.348 8.99133 26.9951C9.04899 28.5477 11.2781 28.5476 11.3354 26.9951C11.3354 26.348 10.8108 25.8232 10.1636 25.8232Z" fill="#29B475"/>
<path d="M19.7288 13.8663C17.6149 13.8663 15.895 15.5861 15.895 17.7001C15.895 18.3472 16.4197 18.872 17.0669 18.872C17.7141 18.872 18.2388 18.3472 18.2388 17.7001C18.2388 16.8785 18.9072 16.2101 19.7288 16.2101C21.0199 16.194 21.7107 17.8074 20.8069 18.7285C18.95 20.6743 18.5569 21.1514 18.5569 23.0238C18.5569 23.6709 19.0816 24.1957 19.7288 24.1957C20.376 24.1957 20.9007 23.6709 20.9007 23.0238C20.9007 22.025 20.9007 22.025 22.5023 20.3468C24.8246 17.9531 23.0654 13.8436 19.7288 13.8663Z" fill="#29B475"/>
<path d="M19.7287 25.8232H19.728C19.0808 25.8232 18.5565 26.348 18.5565 26.9951C18.6142 28.5477 20.8433 28.5476 20.9006 26.9951C20.9006 26.348 20.376 25.8232 19.7287 25.8232Z" fill="#29B475"/>
<path d="M29.2942 13.8663C27.1803 13.8663 25.4604 15.5861 25.4604 17.7001C25.4604 18.3472 25.9851 18.872 26.6323 18.872C27.2795 18.872 27.8042 18.3472 27.8042 17.7001C27.8042 16.8785 28.4726 16.2101 29.2942 16.2101C30.5853 16.194 31.276 17.8074 30.3725 18.7285C28.5154 20.6742 28.1224 21.1513 28.1224 23.0238C28.1224 23.6709 28.647 24.1957 29.2942 24.1957C29.9415 24.1957 30.4661 23.6709 30.4661 23.0238C30.4661 22.025 30.4661 22.025 32.0678 20.3468C34.39 17.9532 32.6308 13.8436 29.2942 13.8663Z" fill="#29B475"/>
<path d="M29.2943 25.8232H29.2936C28.6464 25.8232 28.1221 26.348 28.1221 26.9951C28.1797 28.5477 30.409 28.5476 30.4662 26.9951C30.4662 26.348 29.9415 25.8232 29.2943 25.8232Z" fill="#29B475"/>
</g>
<defs>
<clipPath id="clip0_1838_11519">
<rect width="60" height="60" fill="white"/>
</clipPath>
</defs>
</svg>
