<svg width="60" height="60" viewBox="0 0 60 60" fill="none" xmlns="http://www.w3.org/2000/svg">
<path d="M31.6263 32.7646H3.46242C2.19738 32.7646 1.17188 33.7931 1.17188 35.0619V46.9619C1.17188 48.2306 2.19738 49.2591 3.46242 49.2591H24.0469L27.5432 51.8061L28.2221 49.2591H31.6263C32.8914 49.2591 33.9169 48.2306 33.9169 46.9619V35.0619C33.9169 33.7931 32.8914 32.7646 31.6263 32.7646Z" fill="#D4F0E3"/>
<path d="M56.5373 2.92969H28.3734C26.4642 2.92969 24.911 4.48594 24.911 6.39879V18.2987C24.911 20.2116 26.4642 21.7678 28.3734 21.7678H30.8771L31.3242 23.4448C31.4237 23.8182 31.701 24.1186 32.0653 24.2476C32.1926 24.2927 32.3249 24.3149 32.4564 24.3149C32.7012 24.3149 32.9433 24.2382 33.1465 24.0902L36.3344 21.7679H56.5372C58.4464 21.7679 59.9996 20.2117 59.9996 18.2988V6.39879C59.9998 4.48594 58.4466 2.92969 56.5373 2.92969ZM57.656 18.2987C57.656 18.9192 57.1542 19.4241 56.5373 19.4241H35.953C35.705 19.4241 35.4634 19.5027 35.263 19.6487L33.1485 21.189L32.9099 20.2941C32.7731 19.781 32.3086 19.4241 31.7776 19.4241H28.3734C27.7566 19.4241 27.2548 18.9192 27.2548 18.2987V6.39879C27.2548 5.77828 27.7566 5.27344 28.3734 5.27344H56.5373C57.1542 5.27344 57.656 5.77828 57.656 6.39879V18.2987Z" fill="#29B475"/>
<path d="M21.8324 27.2355V21.1966C21.8324 18.024 19.3623 15.4187 16.2485 15.2114C17.4615 13.9061 18.2045 12.1562 18.2045 10.2357C18.2045 6.20719 14.935 2.92969 10.9163 2.92969C6.89754 2.92969 3.62789 6.20719 3.62789 10.2357C3.62789 12.1562 4.37086 13.9061 5.58387 15.2114C2.47008 15.4187 0 18.024 0 21.1966V27.2355C0 27.8828 0.524648 28.4074 1.17188 28.4074H20.6605C21.3077 28.4074 21.8324 27.8828 21.8324 27.2355ZM10.9161 5.27344C13.6426 5.27344 15.8606 7.49953 15.8606 10.2357C15.8606 12.972 13.6425 15.198 10.9161 15.198C8.18977 15.198 5.97164 12.972 5.97164 10.2357C5.97164 7.49953 8.18977 5.27344 10.9161 5.27344ZM19.4886 26.0637H2.34375V21.1966C2.34375 19.1814 3.97699 17.5418 5.98453 17.5418H15.8477C17.8553 17.5418 19.4886 19.1814 19.4886 21.1966V26.0637Z" fill="#29B475"/>
<path d="M52.8678 8.71289H32.0433C31.3962 8.71289 30.8715 9.23754 30.8715 9.88477C30.8715 10.532 31.3962 11.0566 32.0433 11.0566H52.8678C53.5149 11.0566 54.0397 10.532 54.0397 9.88477C54.0397 9.23754 53.5149 8.71289 52.8678 8.71289Z" fill="#29B475"/>
<path d="M52.8678 13.625H32.0433C31.3962 13.625 30.8715 14.1496 30.8715 14.7969C30.8715 15.4441 31.3962 15.9687 32.0433 15.9687H52.8678C53.5149 15.9687 54.0397 15.4441 54.0397 14.7969C54.0397 14.1496 53.5149 13.625 52.8678 13.625Z" fill="#29B475"/>
<path d="M54.4158 43.8745C55.6288 42.5691 56.3718 40.8193 56.3718 38.8988C56.3718 34.8703 53.1024 31.5928 49.0836 31.5928C45.0647 31.5928 41.7953 34.8703 41.7953 38.8988C41.7953 40.8193 42.5383 42.5691 43.7513 43.8745C40.6375 44.0818 38.1674 46.6871 38.1674 49.8597V55.8986C38.1674 56.5459 38.6922 57.0705 39.3393 57.0705H58.8278C59.4749 57.0705 59.9997 56.5459 59.9997 55.8986V49.8597C59.9997 46.6871 57.5296 44.0818 54.4158 43.8745ZM49.0836 33.9365C51.81 33.9365 54.028 36.1626 54.028 38.8988C54.028 41.635 51.8099 43.8611 49.0836 43.8611C46.3572 43.8611 44.1391 41.635 44.1391 38.8988C44.1391 36.1626 46.3571 33.9365 49.0836 33.9365ZM57.6559 54.7268H40.5111V49.8597C40.5111 47.8444 42.1444 46.2049 44.1518 46.2049H54.015C56.0226 46.2049 57.6558 47.8444 57.6558 49.8597V54.7268H57.6559Z" fill="#29B475"/>
<path d="M27.9568 37.376H7.13232C6.4851 37.376 5.96045 37.9006 5.96045 38.5479C5.96045 39.1951 6.4851 39.7197 7.13232 39.7197H27.9568C28.604 39.7197 29.1287 39.1951 29.1287 38.5479C29.1287 37.9006 28.604 37.376 27.9568 37.376Z" fill="#29B475"/>
<path d="M27.9568 42.2871H7.13232C6.4851 42.2871 5.96045 42.8118 5.96045 43.459C5.96045 44.1062 6.4851 44.6309 7.13232 44.6309H27.9568C28.604 44.6309 29.1287 44.1062 29.1287 43.459C29.1287 42.8118 28.604 42.2871 27.9568 42.2871Z" fill="#29B475"/>
</svg>
