<svg width="60" height="60" viewBox="0 0 60 60" fill="none" xmlns="http://www.w3.org/2000/svg">
<g clip-path="url(#clip0_1838_11541)">
<path fill-rule="evenodd" clip-rule="evenodd" d="M49.3195 37.0878C50.073 37.0878 50.8062 37.1749 51.5096 37.3394C52.3271 28.2223 47.0588 19.6542 39.208 16.0264C36.4387 25.0598 23.6278 25.054 20.8621 16.0264C13.0117 19.6532 7.7426 28.2231 8.56059 37.3392C17.795 35.2112 24.1508 46.3834 17.7299 53.2241C24.5847 58.3062 35.4857 58.3059 42.3403 53.2241C36.6377 47.2355 40.9522 37.0562 49.3195 37.0878Z" fill="#D4F0E3"/>
<path d="M49.3195 35.9144C45.768 35.9144 42.6134 37.6453 40.6548 40.3078L34.5574 36.7874C35.2938 34.2982 33.6595 31.5691 31.2084 30.9865V23.9506C36.5864 23.3642 40.7858 18.795 40.7858 13.2635C40.2452 -0.979177 19.8226 -0.975188 19.2843 13.2637C19.2843 18.7951 23.4836 23.3643 28.8618 23.9507V30.9867C26.4106 31.5688 24.7762 34.2986 25.5126 36.7875L19.4153 40.3079C13.3733 32.0333 0.0256941 36.2812 0 46.6654C0 52.5931 4.82275 57.4158 10.7507 57.4158C18.3759 57.5431 23.7716 49.2334 20.5918 42.3381L26.6883 38.8182C28.4332 40.6775 31.6376 40.6769 33.3818 38.8182L39.4784 42.3381C36.2998 49.2341 41.6932 57.5434 49.3197 57.4157C63.5615 56.8759 63.5589 36.4528 49.3195 35.9144ZM6.60304 53.9728V53.2641C6.60304 51.9309 7.26651 50.6637 8.35306 49.8865C9.69173 50.8751 11.8094 50.8751 13.1481 49.8865C14.2347 50.6636 14.8983 51.9309 14.8983 53.2641V53.9729C12.4859 55.4202 9.01524 55.4202 6.60304 53.9728ZM12.6178 46.423C12.5236 48.8972 8.97664 48.8955 8.88336 46.423V44.9028C8.88336 43.8731 9.72094 43.0354 10.7506 43.0354C11.7801 43.0354 12.6178 43.8731 12.6178 44.9028V46.423ZM17.1404 52.1185C16.8471 50.5147 15.9488 49.0537 14.6313 48.0647C14.8457 47.56 14.9643 47.005 14.9643 46.423V44.9028C14.7517 39.319 6.74735 39.3231 6.53687 44.9028V46.423C6.53687 47.005 6.65548 47.5598 6.86983 48.0647C5.5524 49.0537 4.65416 50.5147 4.36073 52.1185C-0.280172 46.816 3.63543 38.2007 10.7507 38.261C17.8654 38.2006 21.782 46.8174 17.1404 52.1185ZM31.9023 13.0214C31.808 15.4958 28.2612 15.4939 28.1679 13.0214V11.5011C28.1679 10.4716 29.0055 9.6339 30.0351 9.6339C31.0647 9.6339 31.9023 10.4715 31.9023 11.5011V13.0214ZM27.6375 16.4848C28.9762 17.4734 31.0939 17.4734 32.4326 16.4848C33.5191 17.2619 34.1826 18.5292 34.1826 19.8624V20.5713C31.7704 22.0187 28.2997 22.0187 25.8875 20.5713V19.8624C25.8875 18.5292 26.5509 17.2619 27.6375 16.4848ZM21.6308 13.2636C21.6308 8.62949 25.4009 4.85937 30.035 4.85937C37.1504 4.79895 41.066 13.4161 36.4249 18.7168C36.1316 17.113 35.2332 15.6521 33.9158 14.663C34.1301 14.1583 34.2487 13.6035 34.2487 13.0214V11.5011C34.0363 5.91741 26.0319 5.92163 25.8214 11.5011V13.0214C25.8214 13.6035 25.94 14.1583 26.1544 14.663C24.837 15.6521 23.9387 17.113 23.6453 18.7168C22.3898 17.2479 21.6308 15.3427 21.6308 13.2636ZM30.035 37.878C28.741 37.878 27.6884 36.8252 27.6884 35.5314C27.8064 32.4225 32.2642 32.4233 32.3818 35.5314C32.3818 36.8252 31.329 37.878 30.035 37.878ZM45.1719 53.9728V53.2639C45.1719 51.9308 45.8354 50.6634 46.9219 49.8864C48.2606 50.875 50.3783 50.875 51.7169 49.8864C52.8035 50.6636 53.467 51.9309 53.467 53.2639V53.9727C51.0548 55.4202 47.5841 55.4202 45.1719 53.9728ZM51.1867 46.423C51.0925 48.8973 47.5455 48.8955 47.4522 46.423V44.9028C47.5465 42.4284 51.0934 42.4303 51.1867 44.9028V46.423ZM55.7093 52.1185C55.4159 50.5147 54.5177 49.0537 53.2002 48.0647C53.4146 47.56 53.5332 47.005 53.5332 46.423V44.9028C53.3207 39.319 45.3162 39.3232 45.1057 44.9028V46.423C45.1057 47.005 45.2244 47.56 45.4387 48.0647C44.1213 49.0537 43.223 50.5147 42.9296 52.1185C38.2887 46.816 42.2042 38.2007 49.3196 38.261C56.4342 38.2006 60.3509 46.8173 55.7093 52.1185Z" fill="#29B475"/>
</g>
<defs>
<clipPath id="clip0_1838_11541">
<rect width="60" height="60" fill="white"/>
</clipPath>
</defs>
</svg>
